# xmcd CD database file
#
# Track frame offsets:
#	150
#	30940
#	47760
#	55925
#	72055
#	88377
#	113032
#	119785
#	149907
#	158584
#	173642
#	184915
#	206337
#	218800
#	232092
#	254147
#	259195
#	267277
#	281012
#	306697
#
# Disc length: 4287 seconds
#
# Revision: 0
# Processed by: cddbd v1.5.1PL0 Copyright (c) Steve Scherf et al.
# Submitted via: CDex 1.51
#
DISCID=3e10bd14
DTITLE=Haas - Courbois - Gong...
DYEAR=2000
DGENRE=Jazz
TTITLE0=Gong I. Transition
TTITLE1=Blues for PC
TTITLE2=Transition
TTITLE3=Song
TTITLE4=Transition
TTITLE5=Dutch Nightingale
TTITLE6=Transition
TTITLE7=Margana
TTITLE8=Orpheus
TTITLE9=Gliss
TTITLE10=Morpheus
TTITLE11=Whole Sale
TTITLE12=Berceuse
TTITLE13=Transition
TTITLE14=Abba
TTITLE15=Epilogue Abba
TTITLE16=Introduction Udo A (drums)
TTITLE17=Introduction Udo B (piano)
TTITLE18=Udo
TTITLE19=Gong II
EXTD=YEAR: 2000
EXTT0=
EXTT1=
EXTT2=
EXTT3=
EXTT4=
EXTT5=
EXTT6=
EXTT7=
EXTT8=
EXTT9=
EXTT10=
EXTT11=
EXTT12=
EXTT13=
EXTT14=
EXTT15=
EXTT16=
EXTT17=
EXTT18=
EXTT19=
PLAYORDER=
